<?xml version="1.0" encoding="utf-8"?>
<!-- Generator: Adobe Illustrator 19.2.0, SVG Export Plug-In . SVG Version: 6.00 Build 0)  -->
<svg version="1.1" id="Capa_1" xmlns="http://www.w3.org/2000/svg" xmlns:xlink="http://www.w3.org/1999/xlink" x="0px" y="0px"
	 viewBox="0 0 2800 1555" enable-background="new 0 0 2800 1555" xml:space="preserve">
<path fill="#53456A" d="M252.1,1372.2c-0.3-0.3-0.7-0.6-1-1c-1.4-2-0.7-3.9,1.7-4.1c1.6-0.2,3.2-0.1,4.8-0.1c48,0,96,0,144,0
	c1.8,0,3.5-0.1,5.3-0.1c0.3,0,0.6-0.3,0.7-0.5c0.1-0.2-0.2-0.6-0.4-0.7c-1.2-0.4-2.4-0.8-3.6-1.2c-13.4-4.4-24.8-11.7-33.2-23.3
	c-1.6-2.2-3-4.5-4.2-7c-1-1.9-0.9-3.6,0.1-5.5c1.9-3.4,4-6.5,6.5-9.5c9.2-10.8,20.9-17.7,34.5-21.6c7.1-2,14.4-3,21.8-3.2
	c1,0,1.9-0.1,2.9,0c1.8,0.1,2.7,0.9,2.8,2.6c0.1,1.3,0.1,2.6,0.1,3.8c0,7.5,0,15,0,22.6c0,1.3,0,2.6,0.1,3.8
	c0.1,0.9,0.6,1.4,1.5,1.6c0.3,0,0.6,0.1,1,0.1c5.3,0,10.6,0,15.8,0c1.9,0,2.3-0.4,2.3-2.3c0.1-4.5,0-9,0.1-13.4c0-1.3,0-2.6,0.1-3.8
	c0.1-1.1,1.3-2,2.3-2c1,0,2.2,1,2.4,2.1c0.1,1.1,0.1,2.2,0.1,3.4c0,4.5,0,9,0,13.4c0,2.5,0.3,2.7,2.8,2.7c3.8,0,7.7,0,11.5,0
	c1.5,0,2-0.5,2-2.1c0.1-4.8,0-9.6,0.1-14.4c0-1.1,0-2.2,0.2-3.3c0.2-1.1,1.5-1.8,2.6-1.6c1,0.2,1.8,0.7,1.9,1.8
	c0.1,1.1,0.2,2.2,0.2,3.3c0,3.7,0,7.4,0,11c0,1.1,0,2.2,0.1,3.4c0,1.1,0.6,1.9,1.7,1.9c4.3,0,8.6,0,13,0c1.2,0,1.7-0.8,1.7-1.9
	c0.1-4.5,0-9,0.1-13.4c0-1.4,0.1-2.9,0.2-4.3c0.1-1.1,0.9-1.7,1.9-1.8c1.1-0.2,2.4,0.6,2.6,1.7c0.2,1.1,0.3,2.2,0.3,3.3
	c0,4.6,0,9.3,0,13.9c0,2.2,0.4,2.6,2.5,2.6c5.4,0,10.9,0,16.3,0c1.9,0,2.3-0.4,2.2-2.3c-0.1-4.3,0-8.6,1-12.9
	c2.4-10.3,8.8-16.3,19.1-18.5c4.4-0.9,8.9-1,13.4-0.8c1,0.1,1.9,0.2,2.8,0.4c1.4,0.3,2.3,1,2.6,2.5c0.1,0.5,0.2,0.9,0.3,1.4
	c0.8,6.6,0.4,13.1-1.8,19.4c-1.9,5.3-5.2,9.5-10.3,12.2c-1.4,0.7-1.4,1.3-0.3,1.9c9.1,4.9,11.9,13.3,12.7,22.8
	c0.3,3.2,0.1,6.4-0.3,9.6c-0.2,1.5,0.2,2,1.8,2.1c1.8,0.1,3.5,0.1,5.3,0.1c106.1,0,212.2,0,318.2,0c20.6,0,41.3,0,61.9,0
	c1.4,0,2.9,0,4.3-0.1c0.7-0.1,1.2-0.7,0.8-1.3c-2.7-3.7-3.5-8.2-4.8-12.5c-24.1-80.2-48.2-160.4-72.4-240.7
	c-2.2-7.2-4.3-14.4-5.5-21.8c-1.5-9.4-1.8-18.8-1.5-28.2c0.4-13.6,0.5-27.2,0.9-40.8c0.3-9.6,0.8-19.2,1.2-28.8
	c0.1-1.3,0.2-2.5-0.3-3.8c-3.2-8.2-5.2-16.8-7.4-25.3c-3.4-13.7-5.8-27.5-6.9-41.6c-2.5-30.6,1.6-60.3,12.7-89
	c6.2-16,13.6-31.4,22.1-46.3c8.2-14.5,16.6-28.8,25-43.2c13.1-22.4,25.7-45,36.6-68.5c9.6-20.9,18.1-42.3,24.7-64.4
	c4.2-13.8,7-27.9,8-42.3c1-14.5,0-28.8-4.4-42.7c-8.2-25.5-25.2-42.2-50.6-50.3c-17.6-5.5-35.2-5.7-52.9,0
	c-9,2.9-16.9,7.5-23.6,14.2c-4.3,4.4-9.5,6.8-15.8,7.1c-14.6,0.8-25.7-14.6-19.7-29c1.2-2.9,3-5.2,5.1-7.4
	c11.2-11.6,24.7-19.7,39.9-24.9c16.6-5.6,33.6-7.6,51.1-6c22,1.9,42.2,8.7,60.5,21c23.6,15.8,38.8,37.7,46.7,64.8
	c5.4,18.5,6.8,37.4,5.5,56.5c-1.7,25.8-8.5,50.4-17.2,74.5c-11.9,33.2-26.9,65-44.3,95.6c-10,17.5-20.3,34.8-30.4,52.3
	c-7.6,13-15,26.1-21.3,39.7c-5.2,11.3-9.6,23-12.6,35.2c-0.4,1.6-1.1,3.2-0.5,4.8c1.5-0.9,1.8-2.6,2.5-3.9
	c6.8-13.1,14.4-25.7,22.8-37.8c5.3-7.6,11.5-14.6,17.8-21.4c22.3-24,48-43.6,77.5-58.1c23.1-11.4,47.4-19,72.9-22.8
	c15.2-2.3,30.5-3.3,45.9-2.5c46.8,2.2,89.4,16.3,126.9,44.7c17,12.9,31.5,28.1,43.5,45.7c1.7,2.5,3.6,4.3,6.3,5.6
	c6.2,3,11.9,6.9,17.3,11.2c1.9,1.6,2.1,1.6,4-0.2c10.1-9.1,20.2-18.2,30.3-27.3c6.7-6,13.3-12,20-18c0.8-0.7,1.6-1.5,2.5-2.2
	c2-1.5,3.9-0.7,4.1,1.7c0.1,1.3,0.1,2.6,0,3.8c-0.3,16.6-0.6,33.3-1,49.9c0,2.4,0,4.8-0.1,7.2c-0.1,1.7,0.5,3,1.9,4.1
	c2.2,1.6,4.2,3.5,6.1,5.4c5.8,5.7,10.2,12.3,13.4,19.7c0.4,1,0.9,2,1.3,3.1c0.4,1,1.1,1.5,2.2,1.2c2-0.5,4-1,6.1-1.5
	c5.1-1.3,10.2-2.7,15.3-4c1.1-0.3,2.2-0.5,3.3-0.5c1.1,0,1.7,0.7,2,1.7c0.2,1.1-0.2,2-1.1,2.4c-1.1,0.5-2.4,0.9-3.6,1.2
	c-5.4,1.4-10.8,2.8-16.3,4.2c-1.4,0.4-2.8,0.7-4.2,1.1c-1.1,0.3-1.5,1.1-1.3,2.2c0.3,1.7,0.6,3.5,0.9,5.2c0.5,2.7,0.6,2.9,3.3,3.1
	c6.1,0.3,12.1,0.5,18.2,0.7c3,0.1,6.1,0.2,9.1,0.2c0.8,0,1.6,0,2.4,0.2c1.1,0.2,2,1.4,2,2.4c0,1.1-0.9,2-2.2,2.1
	c-1,0.1-1.9,0.1-2.9,0.1c-7.7-0.3-15.3-0.5-23-0.8c-0.8,0-1.6-0.1-2.4-0.1c-3.6-0.1-3.7-0.1-3.9,3.6c-0.2,5.7-1.3,4.7,4.3,6.7
	c5,1.7,10,3.4,15,5.1c1.1,0.4,2.1,0.8,3.1,1.3c0.9,0.5,1.1,1.5,0.9,2.5c-0.3,1.1-1.1,1.6-2.1,1.6c-0.9-0.1-1.9-0.3-2.8-0.6
	c-4.7-1.6-9.4-3.2-14.1-4.8c-1.2-0.4-2.4-0.8-3.7-1.2c-1.2-0.3-1.9,0-2.2,1.2c-0.2,0.8-0.4,1.5-0.6,2.3c-3.8,13.8-11,25.5-22,34.7
	c-1.9,1.6-2.6,3.3-2.6,5.7c0.1,13.6,0.1,27.2,0,40.8c-0.3,32.4-12.2,59.7-35.6,82.1c-4.6,4.4-4.6,4.3-5.5,10.5
	c-2.8,18-5.7,36-8.5,54c-3,19.4-6,38.9-9.1,58.3c-3.4,21.5-6.8,43-10.2,64.4c-4,25.4-7.9,50.9-11.9,76.3c-0.3,1.7-0.7,3.5-0.8,5.2
	c-0.4,4.5-2.3,8.3-5.5,11.4c-0.5,0.4-1,0.8-1.3,1.4c-0.3,0.4-0.1,0.9,0.5,1.1c0.5,0.1,0.9,0.2,1.4,0.2c1.4,0,2.9,0,4.3,0
	c128.5,0,257,0,385.4,0c1.9,0,3.8,0,5.8-0.2c0.7,0,1.2-0.7,0.7-1.3c-2.6-3.5-3-7.7-3.6-11.8c-2.4-16.6-5-33.2-7.5-49.8
	c-2.4-16-4.9-31.9-7.3-47.9c-2.4-16-4.7-31.9-7.1-47.9c-2.4-15.8-4.8-31.6-7.2-47.4c-2.1-13.6-4.1-27.2-6.1-40.8
	c-1.3-8.9-2.7-17.7-3.9-26.6c-0.3-2.2-1.6-3.4-3.1-4.6c-7.1-5.5-13.5-11.8-19-18.9c-12.8-16.4-20.6-34.8-23.2-55.5
	c-0.6-4.9-0.8-9.9-0.8-14.8c0-13.3-0.1-26.6,0-39.8c0-2.6-0.8-4.4-2.8-6.1c-10.3-8.7-17.3-19.6-21.2-32.5c-0.2-0.8-0.5-1.5-0.7-2.3
	c-0.6-1.7-1.1-2-2.9-1.4c-5.3,1.8-10.6,3.6-15.9,5.4c-1.4,0.5-2.7,0.9-4.1,1.1c-1,0.2-1.9-0.2-2.3-1.3c-0.5-1.1-0.2-2.4,0.9-2.9
	c1.1-0.6,2.3-1,3.5-1.4c5.6-1.9,11.2-3.8,16.8-5.7c2.4-0.8,2.5-1,2.3-3.4c-0.7-6.7,1-6.3-6.9-6c-7.7,0.3-15.3,0.5-23,0.8
	c-1,0-1.9,0-2.9-0.1c-1-0.2-1.7-0.8-1.8-1.9c-0.1-1.1,0.5-1.9,1.4-2.3c0.7-0.3,1.5-0.4,2.3-0.4c2.2-0.1,4.5-0.1,6.7-0.2
	c7.2-0.3,14.4-0.5,21.6-0.9c2-0.1,2.2-0.3,2.5-2.1c0.1-0.3,0.1-0.6,0.1-0.9c1.3-8.6,1.9-6.7-5.6-8.8c-4.8-1.3-9.6-2.5-14.4-3.8
	c-1.4-0.4-2.8-0.8-4.1-1.3c-1-0.4-1.3-1.4-1.1-2.4c0.2-1.1,0.9-1.6,2-1.8c1.3-0.2,2.5,0.3,3.8,0.6c5.9,1.5,11.8,3.1,17.6,4.6
	c0.9,0.2,1.9,0.5,2.8,0.7c0.9,0.2,1.6-0.2,1.9-1c0.3-0.7,0.6-1.5,0.9-2.2c4.2-10.8,10.7-20,19.9-27.1c2.2-1.7,2.8-3.5,2.8-6.1
	c-0.4-18.2-0.7-36.5-1.1-54.7c0-1-0.1-1.9,0-2.9c0.2-2.4,2.1-3.4,4-2c1,0.7,2,1.6,2.9,2.5c16,14.5,32.1,28.9,48.1,43.4
	c4.6,4.2,3.3,3.9,8.1,0.3c4.6-3.5,9.4-6.7,14.6-9.2c1.9-1,3.4-2.3,4.6-4.1c29.4-43,69.9-70.4,119.7-84.6c24.5-7,49.6-9.7,75-8.4
	c48.9,2.5,93.3,18,133.2,46.2c21.7,15.3,40.7,33.6,56.9,54.6c6.4,8.2,11.7,17.2,16.9,26.2c2.7,4.6,5.1,9.2,7.7,13.9
	c0.5,1,1.1,2,1.7,2.9c0.2,0.3,0.5,0.4,0.7,0.6c0.1-0.3,0.3-0.6,0.2-0.8c-1.3-5.8-3-11.4-4.9-17c-4.6-13.2-10.7-25.7-17.3-37.9
	c-8.2-15.2-17.1-30-25.9-44.9c-11.4-19.3-22.5-38.7-32.6-58.7c-14.7-29.4-27.3-59.6-36.5-91.2c-6.6-22.7-10.1-45.9-9.1-69.6
	c0.9-19.9,5-39,14.1-56.8c14.3-28,36.7-46.7,66.1-57.4c14.6-5.3,29.7-7.8,45.2-7.6c21.3,0.3,41.5,5.2,59.9,16.4
	c7.1,4.3,13.6,9.5,19.4,15.6c2.5,2.6,4.4,5.5,5.3,9c2.3,8.3,0.3,15.6-6,21.5c-6.4,5.9-13.9,6.8-21.9,3.9c-3-1.1-5.7-2.9-8-5.2
	c-11.5-11.7-25.8-16.8-41.7-18.3c-13.6-1.3-26.9,0.2-39.6,5.1c-24,9.2-39.6,26.3-46.8,51c-2.7,9.3-3.9,18.8-4,28.4
	c-0.3,18.7,3,36.9,8.4,54.8c7.6,25.2,17.5,49.4,28.9,73.1c11,22.8,23.5,44.7,36.4,66.5c8.2,13.9,16.5,27.8,24.1,42
	c7.9,14.7,15,29.7,20.6,45.4c9.5,26.4,13.1,53.7,11.1,81.6c-1.7,23.6-6.8,46.5-14.2,68.9c-0.4,1.3-0.7,2.4-0.6,3.7
	c1,16,1.2,32,1.5,48c0.2,9,0.3,17.9,0.4,26.9c0.3,14.2-2.1,28-6.3,41.5c-19.9,63.8-39.6,127.6-59.4,191.5
	c-5.8,18.8-11.6,37.6-17.4,56.4c-0.9,3.1-2,6.1-4.2,8.5c-0.3,0.3-0.5,0.9-0.5,1.2c0.1,0.8,0.9,0.7,1.5,0.8c1.1,0.1,2.2,0,3.4,0
	c116.2,0,232.3,0,348.5,0c1,0,1.9-0.1,2.9,0c1.9,0.1,2.9-0.7,3.5-2.5c1.4-4.2,4.3-7,8.4-8.6c1.4-0.5,1.5-0.8,0.9-2.1
	c-2.6-5.1-4.1-10.4-4.1-16.1c0-12.9,5.5-22.8,16.2-29.8c0.5-0.3,1.1-0.7,1.7-0.9c1.7-0.7,2.3-2,2.6-3.7c1.3-6.9,2.6-13.8,4-20.7
	c0.4-1.8-0.3-2.7-1.6-3.5c-4.3-2.8-8.5-5.7-12.8-8.5c-5.6-3.7-11.2-7.4-16.7-11.2c-2.3-1.6-4.6-2.4-7.5-2.5c-6.4-0.1-11-5.2-11-11.6
	c0-4.9,3-9.1,7.4-10.7c4.4-1.6,9.6-0.3,12.7,3.2c0.1,0.1,0.2,0.2,0.3,0.4c1.4,3.5,4.5,4.1,7.7,4.6c2.8,0.4,5.6,1.1,8.5,1.6
	c1.6,0.3,1.9,0,2.2-1.6c0.3-1.3,0.4-2.5,0.7-3.8c3.7-15.4,21.5-22.2,34.7-13.4c1.4,0.9,2.5,3,4.3,2.6c1.4-0.3,2.5-1.9,3.9-2.7
	c8.2-5.1,16.7-5.4,24.9-0.2c8.4,5.3,11.8,13.4,10.1,23.1c-1.6,9.4-7.5,15.3-16.6,18c-2.6,0.8-5.4,0.6-8.1,0.6c-1,0-1.5,0.6-1.4,1.5
	c0.3,1.9,0.6,3.8,1,5.7c1.8,9.4,3.6,18.8,5.3,28.3c0.4,2.5,1.5,4.2,3.8,5.6c8,4.6,13.1,11.6,15.5,20.5c0.5,1.8,0.7,3.8,1,5.7
	c0.2,1.3,0.8,2,2.2,2.1c15.6,0.9,28.4-4.3,36.7-18c9.5-15.7,5.4-36.2-9.1-47.4c-1.1-0.9-2.4-1.7-3.4-2.6c-0.9-0.8-0.9-2.1-0.2-3
	c0.8-1,1.9-1.3,3-0.8c1.1,0.6,2.2,1.3,3.2,2c9.3,7.2,14.8,16.6,16.3,28.3c3.1,23.9-15.3,46.4-41.4,46.7c-2.1,0-4.2,0.1-6.2,0.1
	c-0.7,0-1.2,0.4-1.4,1.1c-0.7,4.1-2.1,8-4,11.7c-0.3,0.6-0.1,1.2,0.6,1.6c0.3,0.2,0.6,0.3,0.8,0.5c3.7,1.7,6.2,4.5,7.3,8.4
	c0.4,1.4,1.3,2.1,2.8,2.1c1.4,0,2.9,0,4.3,0c20.2,0,40.3,0,60.5,0c2.1,0,4.2-0.1,6.2,0.5c0,1.3,0,2.6,0,3.8c-0.5,0.1-0.9,0.3-1,1
	C1811.2,1372.2,1031.6,1372.2,252.1,1372.2z"/>
<path fill="#CCD6DA" d="M1707.4,817.3c1.3,0.5,2.5-0.2,3.7-0.5c6.4-2,13-3.4,19.7-4c23.4-2,45.1,3.2,64.8,16.1
	c0.9,0.6,1.9,1.3,2.8,1.9c0.7,0.5,1.5,0.5,2.2-0.1c0.7-0.6,1.4-1.3,2.1-2c15.8-15.6,31.6-31.2,47.5-46.9c0.9-0.9,1.8-1.9,2.8-2.6
	c1.6-1.2,3.8-0.4,4,1.6c0.2,1.4,0.1,2.9,0.1,4.3c0,27.4,0,54.7,0,82.1c0,1.4,0,2.9,0.1,4.3c0,0.7,0.5,1.2,1.3,1
	c0.9-0.2,1.9-0.5,2.8-0.8c4.8-1.6,9.7-3.3,14.5-4.9c1.2-0.4,2.4-0.9,3.7-1.2c1.5-0.4,2.7,0.4,3,1.7c0.3,1.1-0.2,2.2-1.4,2.8
	c-1,0.5-2.1,0.8-3.1,1.2c-6,2.1-12.1,4.1-18.1,6.2c-2.6,0.9-2.6,1-2.7,3.8c0,1.9,0,3.8,0.1,5.8c0,0.9,0.7,1.4,1.6,1.5
	c1.3,0,2.6,0,3.8,0c8.5-0.3,16.9-0.7,25.4-1c1,0,1.9-0.1,2.9-0.1c0.5,0,1,0,1.4,0.1c1.1,0.2,1.7,0.8,1.9,1.8c0.2,1-0.5,2.4-1.6,2.6
	c-1.2,0.2-2.5,0.3-3.8,0.4c-9.6,0.4-19.2,0.7-28.8,1.1c-2.5,0.1-2.9,0.5-2.9,2.7c-0.1,6.5-0.4,5.1,5,6.6c6,1.7,12.1,3.2,18.1,4.8
	c0.9,0.2,1.9,0.5,2.7,1c1,0.5,1.2,1.5,1,2.5c-0.2,1.1-1.1,1.7-2.1,1.6c-1.3-0.1-2.5-0.3-3.8-0.6c-5.1-1.3-10.2-2.7-15.3-4
	c-1.4-0.4-2.8-0.7-4.2-1c-0.7-0.1-1.3,0.2-1.4,0.9c-0.1,1.4-0.1,2.9-0.1,4.3c0,20.3,0,40.6,0,61c0,1.4,0,2.9-0.2,4.3
	c-0.1,1.1-1.5,1.9-2.6,1.6c-1-0.2-1.8-0.8-1.9-1.9c-0.1-1.6-0.1-3.2-0.1-4.8c0-59,0-118.1,0-177.1c0-1.1,0-2.2,0-3.4
	c0-0.6,0-1.3,0-1.9c0-0.6,0.2-1.4-0.5-1.7c-0.9-0.5-1.4,0.4-2,0.8c-0.5,0.4-0.9,0.9-1.4,1.3c-14.6,14.4-29.1,28.8-43.7,43.2
	c-5.1,5.1-4.5,4.3-9.8,0.7c-23.6-16.1-49.4-21-77.3-14.3c-14.4,3.4-27.2,10.2-38.5,19.8c-3.1,2.6-3.5,2.5-6.5,0
	c-0.6-0.5-1.2-1.1-1.8-1.6c-12.7-11.5-25.4-22.9-38.1-34.4c-2.5-2.3-5-4.5-7.5-6.7c-0.8-0.7-1.5-2.1-2.7-1.7c-1.3,0.5-0.7,1.9-0.7,3
	c0.1,7.4,0.2,14.7,0.3,22.1c0.2,9.8,0.4,19.5,0.6,29.3c0.1,2.3-0.7,3.7-2.6,5.2c-15.4,11.4-23.6,26.8-24,45.9
	c-0.5,19.9,7.5,36.3,22.5,49.4c0.8,0.7,1.8,1.4,2.6,2.1c0.9,0.7,1.5,1.7,1.4,2.9c0,1.3,0,2.6,0,3.8c0,13.6,0,27.2,0,40.8
	c0,5.6,0.3,11.2,1.2,16.7c4.5,27.5,17.5,50.2,39.3,67.7c18.4,14.8,39.6,22.6,63.2,23.4c1.3,0,2.6,0.1,3.8,0.2c1,0.1,1.8,0.8,2,1.8
	c0.3,1.1,0.5,2.2,0.6,3.3c0.8,7.2,1.5,14.3,2.2,21.5c1.1,10.5,2.2,21,3.3,31.5c1.1,10.8,2.3,21.6,3.4,32.4c1.1,10.5,2.1,21,3.2,31.5
	c1.1,10.7,2.3,21.3,3.4,32c1.1,10.7,2.2,21.3,3.3,32c1.5,14.8,3.1,29.6,4.6,44.4c0.6,5.4,1.1,10.8,1.8,16.2c0.8,5.8,4,9.5,9.6,11.4
	c6.5,2.3,16.4-0.7,18.3-11.2c3.5-19.8,7.1-39.7,10.6-59.5c3.4-18.9,6.8-37.8,10.1-56.7c3.4-18.7,6.8-37.4,10-56.2
	c2.6-15.5,6.7-30.6,12.6-45.2c9.5-23.5,22.3-45,39.2-63.9c6.7-7.6,14.2-14.3,22.5-20c24.6-16.8,50.9-19.2,78.7-9.7
	c0.5,0.2,0.9,0.4,1.3,0.5c1.4,0.5,2.1,1.4,2.2,2.8c0,0.8,0,1.6,0.1,2.4c0.4,6.2,1.2,12.4,2.7,18.5c7.8,31.2,32.7,55.9,63.9,63.3
	c5.8,1.4,11.7,2,17.6,2.2c2.8,0.1,3.4,0.7,3.8,3.3c0.4,3.2,0.2,6.4-0.3,9.6c-2.5,15.1-4.8,30.3-7.3,45.5
	c-2.4,14.8-4.8,29.7-7.2,44.5c-2.3,14.5-4.7,29-7,43.6c-2.4,15.2-4.9,30.3-7.3,45.5c-1.4,8.5-2.8,17-4.1,25.6
	c-0.3,2.1-0.4,4.1,0.3,6.2c1.9,5.1,5.6,8.1,10.9,9c5.4,0.9,10.2-0.4,13.8-4.8c1.4-1.7,1.9-3.7,2.5-5.6c3.3-10.5,6.5-21.1,9.8-31.6
	c22.6-73,45.3-146,67.9-219c3.6-11.5,5.6-23.3,5.4-35.4c-0.3-16.3-0.7-32.6-0.9-48.9c-0.2-13.8-0.8-27.5-2.1-41.2
	c-1.4-15.3-3.8-30.5-7.4-45.4c-7-29.4-18.8-56.7-34.5-82.4c-4.6-7.5-9.1-15.1-14.6-22c-13.9-17.7-29.8-33.5-47.7-47.1
	c-41.9-31.8-89.1-49-141.7-51c-19.6-0.8-39,1.2-58.1,5.5c-33.1,7.4-63.2,21.4-89.6,42.9c-12.2,9.9-23.1,21.2-32.6,33.8
	c-0.9,1.2-2.4,2.2-2.2,4.1c-0.4,0-0.4,0.3-0.2,0.2C1708,817.5,1707.3,817.9,1707.4,817.3z"/>
<path fill="#D6E9F6" d="M1163.2,853.1c0,20,0,40,0,60c0,1.3,0,2.6,0,3.8c0.1,1.8,0.4,2.1,2.4,2.2c1.1,0.1,2.2,0,3.4,0
	c4.3,0,8.6,0,13,0c1.3,0,2.6,0,3.8,0.2c1.1,0.1,2,1.3,2.1,2.3c0.1,1-0.8,2.2-2,2.4c-1.1,0.2-2.2,0.1-3.3,0.1c-5.6,0-11.2-0.1-16.8,0
	c-2.1,0-2.5,0.4-2.5,2.6c-0.1,3.8,0,7.7,0,11.5c0,4.9-0.1,4.6,4.8,4.7c5,0.1,9.9,0.1,14.9,0.2c1.1,0,2.2-0.1,3.3,0.5
	c0.9,0.6,1.3,1.4,1.2,2.4c-0.1,0.8-0.5,1.6-1.4,1.8c-1.1,0.2-2.2,0.4-3.3,0.3c-3.2,0-6.4-0.2-9.6-0.2c-2.7,0-5.4-0.1-8.2,0
	c-0.9,0-1.6,0.6-1.6,1.5c0,5.3-0.1,10.6,0,15.8c0,0.9,0.6,1.5,1.5,1.6c1.3,0.1,2.6,0.1,3.8,0.2c4.6,0.1,9.3,0.1,13.9,0.2
	c0.9,0,1.9,0.1,2.8,0.4c1.1,0.3,1.9,1.6,1.7,2.6c-0.2,1-0.9,1.8-1.9,1.9c-1.7,0.2-3.5,0.2-5.3,0.2c-3.8-0.1-7.7-0.2-11.5-0.2
	c-1.6,0-3.4-0.7-4.6,0.5c-1.1,1-0.4,2.8-0.6,4.1c0,0.2,0,0.3-0.1,0.5c-0.2,1.1-1.4,2-2.4,1.9c-1-0.1-2-1-2.1-2.2
	c-0.1-1.4-0.1-2.9-0.1-4.3c0-20,0-40,0-60c0-1.4,0-2.9-0.1-4.3c-0.1-1.2-0.6-1.6-1.9-1.3c-1.4,0.3-2.8,0.7-4.2,1.1
	c-4.9,1.3-9.9,2.6-14.8,3.9c-1.2,0.3-2.5,0.6-3.8,0.6c-1,0.1-1.9-0.5-2.1-1.6c-0.2-1,0-2,0.9-2.5c0.8-0.4,1.8-0.7,2.7-1
	c5.9-1.6,11.7-3.1,17.6-4.6c1.4-0.4,2.8-0.7,4.2-1.1c0.8-0.2,1.3-0.9,1.4-1.7c0.1-0.5,0-1,0.1-1.4c0.2-5.1,0.1-5.1-4.8-5.3
	c-9.3-0.4-18.5-0.7-27.8-1.1c-1,0-1.9-0.1-2.9-0.3c-1.1-0.2-1.9-1.4-1.8-2.5c0.1-1.1,0.8-1.7,1.8-1.9c0.9-0.2,1.9-0.1,2.9-0.1
	c6.1,0.2,12.1,0.5,18.2,0.7c4.2,0.2,8.3,0.3,12.5,0.4c1.1,0,1.8-0.6,1.8-1.7c0-1.9,0-3.8,0.1-5.8c0.1-1.9-0.7-2.9-2.5-3.5
	c-6.1-2-12.1-4.1-18.2-6.2c-1.2-0.4-2.4-0.8-3.6-1.4c-1.1-0.5-1.6-1.8-1.2-2.8c0.4-1.1,1.5-1.8,2.7-1.6c1.4,0.3,2.8,0.8,4.1,1.2
	c5.5,1.8,10.9,3.7,16.4,5.5c1.8,0.6,2.2,0.3,2.3-1.7c0-1.4,0-2.9,0-4.3c0-26.9,0-53.8,0-80.6c0-1.4,0-2.9,0-4.3c0-1,0.3-1.9,1.3-2.4
	c1.2-0.6,2.2-0.2,3.1,0.6c1.2,1.1,2.3,2.2,3.5,3.3c15.1,15,30.2,30,45.4,44.9c4.8,4.8,3.5,4.3,8.5,1c15.8-10.2,33.1-15.8,52-16.2
	c10.2-0.2,20.1,0.9,29.9,3.7c1.2,0.4,2.5,0.7,3.7,1c0.3,0.1,0.7,0,0.9-0.2c0.1-0.1,0.1-0.6,0-0.8c-0.7-1.1-1.4-2.1-2.2-3.2
	c-7-9.2-14.7-17.7-23.2-25.5c-24.6-22.6-53.2-38-85.3-47c-9.7-2.7-19.5-4.9-29.6-6.2c-1.6-0.2-2.1,0.2-2.1,1.8
	c-0.1,3.2-0.1,6.4-0.1,9.6c0,7.4,0,14.7,0,22.1c0,1.3-0.1,2.6-0.3,3.8c-0.2,1.1-1.4,1.8-2.6,1.7c-1.1-0.1-1.8-0.8-1.9-1.8
	c-0.2-1.1-0.2-2.2-0.2-3.3c0-9.3,0.1-18.6,0.1-27.8c0-1.8,0-3.5-0.1-5.3c0-0.9-0.6-1.5-1.4-1.7c-0.6-0.2-1.3-0.3-1.9-0.3
	c-7-0.4-14-1.1-21.1-1.1c-4.7,0-4.7,0-4.8,4.7c-0.1,10.2-0.2,20.5-0.4,30.7c0,1.1,0,2.2-0.1,3.4c-0.1,1.1-1.3,2-2.4,2
	c-1.1,0.1-2.2-0.8-2.3-2c-0.1-1.1-0.2-2.2-0.1-3.3c0.1-6.9,0.2-13.8,0.3-20.6c0-3.8,0.1-7.7,0.1-11.5c0-3-0.3-3.2-3.4-3
	c-6.1,0.5-12.2,0.8-18.1,1.7c-8.9,1.4-7.7-0.8-7.9,8.7c-0.2,7.8-0.2,15.7-0.3,23.5c0,1,0,1.9-0.1,2.9c-0.2,1.9-1,3-2.4,3
	c-1.5,0.1-2.4-1.2-2.5-3.4c0-0.5,0-1,0-1.4c0.1-4.8,0.1-9.6,0.2-14.4c0.1-4.8,0.1-9.6,0.2-14.4c0-2-0.3-2.3-2.2-2.1
	c-1,0.1-1.9,0.3-2.8,0.4c-21.4,4.5-41.9,11.6-61.4,21.5c-26.7,13.5-50.1,31.3-70.8,52.9c-7,7.3-13.8,14.8-19.6,23
	c-9.8,13.9-18.3,28.5-25.9,43.7c-16.9,34.2-25.7,70.5-28.7,108.3c-1.1,14.4-1.5,28.8-1.8,43.1c-0.3,13.1-0.6,26.2-0.8,39.3
	c-0.1,5.9,0.3,11.8,1.1,17.7c1.1,8.3,3.4,16.3,5.8,24.2c19.1,63.2,38,126.4,57.1,189.7c5.8,19.1,11.5,38.3,17.3,57.4
	c1.8,5.9,6,8.9,12.1,9.1c6.9,0.2,12.1-2.7,14.4-8.2c0.7-1.7,1-3.4,0.8-5.2c-0.2-1.7-0.4-3.5-0.7-5.2c-2.4-16-4.8-31.9-7.2-47.9
	c-2.4-16-4.7-32-7.1-47.9c-2.7-18.2-5.5-36.4-8.2-54.5c-2.5-16.6-4.9-33.2-7.4-49.8c-0.5-3.2-0.5-6.4-0.3-9.6
	c0.1-2.5,1.1-3.7,3.9-3.7c2.1,0,4.1-0.3,6.2-0.4c7.9-0.6,15.5-2.5,22.8-5.4c5.4-2.2,5.7-1.9,1.4-6.2c-14.7-14.7-29.4-29.4-44.1-44.1
	c-1-1-2-2-3-3.1c-0.8-1-0.9-2.3-0.2-3.1c0.8-1,2.3-1.2,3.4-0.3c1.1,0.9,2.1,1.9,3.1,3c15.1,15,30.1,30.1,45.1,45.1
	c0.9,0.9,1.8,1.8,2.7,2.7c0.8,0.8,1.7,0.8,2.7,0.5c0.7-0.3,1.5-0.6,2.1-1.1c5.7-3.6,11-7.7,15.8-12.5c1.4-1.5,1.4-1.8,0.1-3.2
	c-0.9-0.9-1.8-1.8-2.7-2.7c-15.8-15.8-31.7-31.7-47.5-47.5c-1-1-2.1-2-3-3.1c-0.7-0.9-0.6-2.3,0.2-3.1c0.8-0.7,2.2-0.9,3.1-0.2
	c1.1,0.9,2.1,1.9,3.2,2.9c15.7,15.7,31.5,31.4,47.2,47.2c0.9,0.9,1.8,1.8,2.7,2.7c1.4,1.3,1.9,1.3,3.1-0.2c3.9-4.7,7.2-9.8,9.9-15.3
	c3.3-6.8,3.3-5.1-1.5-10c-14.3-14.4-28.7-28.7-43.1-43.1c-1-1-2-2.1-2.9-3.2c-0.7-0.9-0.3-2.4,0.5-3c0.9-0.6,1.9-0.7,2.7-0.1
	c1.2,0.8,2.2,1.9,3.2,2.9c13.8,13.8,27.6,27.6,41.4,41.4c1,1,2,2,3.1,3c0.7,0.6,1.5,0.3,1.8-0.6c2-5.6,3.2-11.4,3.7-17.3
	c0.3-2.9,0.4-5.7,0.6-8.6c0.1-1.6,0.8-2.7,2.4-3.2c3.4-1,6.7-2.2,10.1-3.1c24.8-6.3,47.9-2.4,69.1,12c2.6,1.8,5.2,3.7,7.7,5.7
	c2.5,2,4.7,4.5,7.3,6.2c2.9,1.9,4.7,4.7,6.9,7.1c13.9,15.3,25.1,32.3,34.1,50.9c0.6,1.3,1.3,2.6,1.9,3.9c0.4,0.8,1.1,1.1,2,0.9
	c1.4-0.3,2.8-0.7,4.2-1.1c7.3-1.9,14.5-3.9,21.8-5.8c1.2-0.3,2.5-0.8,3.8-0.6c1,0.1,1.8,0.7,2,1.8c0.2,1-0.1,2-1,2.5
	c-0.7,0.4-1.5,0.6-2.2,0.8c-3.2,0.9-6.5,1.8-9.7,2.6c-4.8,1.3-9.6,2.5-14.4,3.8c-3.7,1-3.7,1-2.4,4.4c2.7,6.5,5,13.1,7,19.9
	c1.5,4.9,1.3,4.3,5.9,3.2c6.5-1.6,13-3.4,19.5-5c1.4-0.4,2.8-0.7,4.2-0.7c1,0,1.7,0.7,2.1,1.7c0.3,1.1-0.1,2-0.9,2.5
	c-0.8,0.5-1.7,0.8-2.6,1c-3.7,1-7.4,1.9-11.1,2.9c-3.9,1-7.7,2-11.6,3c-2.4,0.6-2.6,1-2.2,3.3c0.8,4.4,1.7,8.8,2.5,13.2
	c0.5,2.5,0.9,5,1.4,7.5c0.4,2.1,0.8,2.3,3,1.8c0.8-0.2,1.5-0.4,2.3-0.6c6.8-1.9,13.6-3.7,20.4-5.6c1.1-0.3,2.2-0.6,3.3-0.7
	c1.2-0.2,2.3,0.6,2.7,1.6c0.4,1.2-0.3,2.6-1.7,3.1c-1.2,0.5-2.4,0.8-3.7,1.1c-6.9,1.9-13.9,3.8-20.8,5.7c-0.9,0.3-1.8,0.5-2.7,0.9
	c-0.6,0.2-1,0.8-0.9,1.5c0.2,1.4,0.3,2.9,0.6,4.3c0.8,4.6,1.7,9.1,2.5,13.7c3.4,18.4,6.7,36.8,10.1,55.2
	c3.7,20.3,7.4,40.6,11.1,60.9c1.3,7.4,2.6,14.8,4,22.2c1.5,7.5,7.3,11.9,14.9,11.5c7-0.4,12.2-5.2,13-12.4
	c1.3-11.4,2.5-22.9,3.7-34.3c1.1-10.7,2.1-21.3,3.3-32c1.4-13.7,2.9-27.3,4.4-41c1.4-13.8,2.8-27.7,4.2-41.5
	c1.8-16.9,3.6-33.7,5.4-50.6c1.4-13.5,2.8-27,4.1-40.6c0.1-0.8,0.2-1.6,0.4-2.4c0.3-1.4,1.2-2.2,2.7-2.3c1-0.1,1.9-0.1,2.9-0.1
	c5.6-0.1,11.2-0.8,16.7-1.8c48-8.8,87.1-51.1,87.5-105.1c0.1-13.8,0-27.5,0-41.3c0-1.3,0.1-2.6,0-3.8c-0.1-1.6,0.6-2.8,1.9-3.7
	c0.8-0.5,1.5-1.2,2.3-1.8c16.3-14.4,24.1-32.4,22.1-54.1c-1.6-17.2-9.8-30.9-23.7-41.1c-1.7-1.3-2.6-2.6-2.5-4.8
	c0.1-5.4,0.1-10.9,0.2-16.3c0.2-12.3,0.5-24.6,0.8-36.9c0-1,0-1.9-0.2-2.9c-0.1-0.5-0.7-0.7-1.1-0.4c-0.9,0.7-1.8,1.4-2.6,2.1
	c-7.3,6.5-14.5,13.1-21.7,19.6c-8.6,7.7-17.1,15.5-25.7,23.1c-2.3,2-3.1,2-5.4,0.2c-2-1.6-4-3.2-6-4.8c-4.2-3.2-8.7-5.9-13.5-8.3
	c-3.3-1.6-3.5-1.5-3.5,2c0,2.4,0,4.8,0,7.2c0,0.9-0.1,1.9-0.4,2.8c-0.3,1.1-1.6,1.8-2.6,1.6c-1-0.2-1.8-0.8-1.9-1.9
	c-0.1-1.1-0.1-2.2-0.1-3.3c0-3.4,0-6.7,0-10.1c0-1.5-0.6-2.3-2-2.8c-4.7-1.7-9.4-3.1-14.3-3.9c-2-0.3-2.4-0.1-2.4,1.8
	c-0.1,4.5-0.1,9-0.2,13.4c0,1.4-0.1,2.9-0.3,4.3c-0.2,1.2-1.2,2-2.3,2c-1.2,0-2.2-0.7-2.3-1.9c-0.1-1.1-0.1-2.2-0.1-3.3
	c0.1-5,0.2-9.9,0.2-14.9c0-2.4-0.3-2.8-2.8-2.8c-4.5-0.1-9-0.2-13.4-0.1c-2.4,0-2.7,0.4-2.8,2.9c-0.1,5-0.2,9.9-0.3,14.9
	c0,1,0,1.9-0.2,2.9c-0.2,1.4-1.6,2.3-2.8,2.1c-1.1-0.2-1.9-1-2-2.3c-0.1-1.6-0.1-3.2-0.1-4.8c0.1-4.3,0.2-8.6,0.2-13
	c0-1.2-0.6-1.7-1.8-1.5c-0.5,0.1-0.9,0.2-1.4,0.3c-13.6,2.5-26,7.8-37.3,15.7c-1.2,0.8-2.3,1.7-3.5,2.5c-0.9,0.6-1.9,0.6-2.7-0.1
	c-0.9-0.7-1.7-1.5-2.5-2.3c-5.7-5.6-11.4-11.2-17.1-16.8c-9.3-9.2-18.7-18.4-28-27.6c-0.6-0.6-1.1-1.1-1.8-1.6
	c-0.2-0.2-0.6-0.3-0.9-0.2c-0.6,0.1-0.7,0.6-0.7,1.1c0,1.4-0.1,2.9-0.1,4.3C1163.2,813.4,1163.2,833.3,1163.2,853.1z"/>
<path fill="#FFFFFF" d="M1888.4,1367c32.3,0,64.6,0,96.9,0c1.6,0,3.2,0,4.8-0.1c0.4,0,0.9-0.1,1.2-0.6c0.3-0.6-0.1-0.9-0.5-1.2
	c-3.9-3.7-5.4-8.4-5.9-13.7c-0.9-9.6-2.1-19.1-3.2-28.6c-1.2-10.2-2.3-20.3-3.5-30.5c-1.1-9.5-2.2-19.1-3.3-28.6
	c-1.1-9.8-2.3-19.7-3.4-29.5c-1.1-9.7-2.2-19.4-3.3-29.1c-1.1-10-2.3-20-3.5-30c-1.1-9.2-2-18.4-3.1-27.6c-0.7-6-2.9-11.4-6.9-16.1
	c-1.1-1.3-2.3-2.1-4.1-1.7c-9.1,1.6-17.9-0.2-26.3-3.5c-16.8-6.6-30.4-17.5-40.4-32.6c-2.9-4.4-5.2-9.1-7-14.2
	c-0.6-1.6-0.7-3.5-1.8-4.9c-2.1,0.5-2.9,2.3-4.2,3.6c-1,1-1.9,2.2-2.8,3.3c-23.6,29-39.2,61.7-45.7,98.5c-5,27.9-10,55.7-15,83.5
	c-5.5,30.7-11,61.4-16.4,92.1c-0.5,3.1-1.7,5.8-3.4,8.4c-0.6,0.9-2,1.6-1.3,2.8c0.5,0.8,1.8,0.5,2.7,0.5c1.3,0,2.6,0,3.8,0
	C1824.7,1367,1856.5,1367,1888.4,1367z"/>
<path fill="#FFFFFF" d="M1161.9,1367c20.5,0,41,0,61.4,0c1.6,0,3.2,0,4.8-0.1c0.9-0.1,1.3-0.9,0.8-1.7c-2-2.7-3.6-5.7-4.2-9.1
	c-3.2-17.8-6.5-35.5-9.7-53.3c-3.4-18.6-6.7-37.1-10.1-55.7c-3.7-20.3-7.5-40.6-11-60.9c-2.5-14.7-6.2-29.1-11.6-43
	c-9.2-23.6-21.8-45.2-38.6-64.2c-3.9-4.4-3.1-4.1-6.9,0.1c-11.3,12.8-25.1,21.7-41.4,26.7c-6.9,2.1-14,3.4-21.2,3.5
	c-2.3,0-3.5,1-4.4,2.9c-2.3,5.1-3.3,10.4-2.6,15.9c1.3,9.7,2.7,19.3,4,29c1.8,12.5,3.5,25,5.3,37.5c2.1,14.9,4.1,29.8,6.1,44.7
	c2.4,17.1,4.8,34.2,7.2,51.3c2.8,20.3,5.6,40.5,8.5,60.8c0.6,4-0.2,7.6-1.9,11.1c-0.6,1.3-2.5,2.4-1.8,3.6c0.8,1.6,2.8,0.6,4.4,0.8
	c0.6,0.1,1.3,0,1.9,0C1121.3,1367,1141.6,1367,1161.9,1367z"/>
<path fill="#B2ACBF" d="M2022.2,557.7c-0.2-8.3,0.7-18.2,3.2-27.9c7.4-29,25.1-48.8,53.5-58.6c12.9-4.4,26.2-5.9,39.7-4.4
	c16.7,1.8,31.7,7.3,43.8,19.5c2.3,2.3,5,3.9,8.2,4.8c11.8,3.6,22.3-7.3,20.1-18.3c-0.7-3.4-2.3-6.3-4.7-8.8
	c-5.3-5.6-11.3-10.4-17.9-14.4c-14.1-8.7-29.6-13.6-46-15.3c-21.6-2.2-42.5,0.8-62.4,9.4c-27.5,11.9-47.5,31.4-59.4,59
	c-6.8,15.8-9.8,32.4-10.5,49.5c-0.8,20.1,2,39.9,7,59.3c4.9,19.2,11.8,37.8,19.3,56.2c11.8,29.1,26.3,56.9,42.1,84
	c10.2,17.6,20.6,35,30.7,52.6c7.3,12.6,13.8,25.6,19.2,39.1c5.3,13.3,9.1,27,10.8,41.2c0.5,4.2,1.6,8.1,3.1,12
	c8.1,20.8,13.5,42.3,16.6,64.4c0.6,4.3,1.2,8.6,1.8,12.8c0,0.2,0.3,0.4,0.6,0.5c0.1,0,0.3-0.1,0.4-0.2c0.4-1.1,0.8-2.1,1.1-3.2
	c4.3-16.1,7.5-32.4,8.9-49c1.2-13.6,1.1-27.2-0.6-40.7c-1.8-15.1-5.6-29.8-10.9-44.1c-6.2-16.9-14.1-32.9-22.9-48.5
	c-9.1-16-18.4-31.9-27.7-47.7c-12.6-21.6-24.6-43.4-34.9-66.2c-9.7-21.4-18.3-43.3-24.8-65.9C2025,592.7,2022.1,576.2,2022.2,557.7z
	"/>
<path fill="#C1D8E5" d="M1025.7,559.9c-0.1-14.6-1.6-28.7-5.6-42.5c-7-24.5-20.2-44.7-40.8-60c-16.4-12.1-34.8-19.4-55-22.3
	c-18.3-2.7-36.4-1.5-54.1,4.1c-15.2,4.8-28.7,12.5-39.9,23.9c-1.1,1.1-2.2,2.3-3.1,3.6c-4,5.8-3.8,13.3,0.4,18.8
	c4.3,5.7,11.2,7.7,18,5.4c3.1-1.1,5.6-2.9,7.9-5.2c7-7.1,15.4-11.9,24.8-14.9c21.6-6.9,42.9-5.9,63.8,2.6
	c21.4,8.7,36.2,24.1,44.5,45.8c3.9,10.3,5.9,20.9,6.4,31.8c0.9,18.2-1.6,36-6.2,53.6c-4.5,17-10.6,33.5-17.2,49.8
	c-11.1,27.3-24.6,53.4-39.3,78.9c-8.6,14.8-17.3,29.5-25.9,44.3c-8.8,15.2-17.1,30.8-24.1,46.9c-12.9,29.5-18.9,60.3-16.8,92.5
	c1.2,19.1,4.9,37.7,9.9,56.1c0.2,0.6,0.5,1.2,0.7,1.8c0.1,0.1,0.3,0.2,0.4,0.2c0.1,0,0.3-0.1,0.3-0.2c0.1-0.5,0.3-0.9,0.3-1.4
	c1-7.1,1.9-14.3,3.1-21.3c3.4-19.7,8.8-39,16.4-57.5c0.7-1.8,1.1-3.6,1.2-5.6c0.2-4.5,1-8.9,1.8-13.3c2.7-15,7.8-29.3,14.1-43.2
	c6.1-13.2,13.1-26,20.4-38.5c11.2-19.2,22.7-38.2,33.5-57.6c15.9-28.5,30-57.9,41.1-88.7c0.4-1.1,0.7-2.1,1.1-3.2
	c0.3-0.8,0.1-1.6-0.5-2.2c-0.8-0.8-1.5-1.6-2.3-2.4c-3.6-3.6-7.2-7.2-10.9-10.9c-0.8-0.8-1.6-1.6-2.3-2.4c-1.2-1.4-1.3-2.9-0.2-3.8
	c1-0.9,2.4-0.7,3.8,0.6c0.7,0.6,1.4,1.3,2.1,2c3.2,3.2,6.3,6.3,9.5,9.5c0.7,0.7,1.4,1.4,2.1,2c0.6,0.5,1.3,0.3,1.5-0.4
	c1.3-3.8,2.4-7.6,3.9-11.3c0.8-2,0.2-3.3-1.2-4.6c-4.5-4.4-8.9-8.8-13.2-13.2c-0.9-0.9-1.7-1.9-2.4-2.9c-0.5-0.7-0.3-1.5,0.2-2.2
	c0.6-0.9,1.5-1.1,2.5-0.9c0.6,0.2,1.1,0.6,1.6,1c1,0.9,1.8,1.8,2.7,2.7c3.5,3.5,7,7,10.5,10.5c1.2,1.1,1.8,0.9,2.3-0.7
	c1.1-4,1.9-8.1,3-12.1c0.6-2.1,0.2-3.6-1.4-5.1c-4.2-4-8.2-8.1-12.2-12.2c-0.9-0.9-1.8-1.8-2.6-2.8c-0.6-0.8-0.6-1.8,0.1-2.6
	c0.7-0.8,1.6-1,2.6-0.7c1,0.2,1.6,1,2.3,1.7c3.1,3,6.1,6.1,9.2,9.2c0.8,0.8,1.6,1.6,2.4,2.3c0.5,0.4,1.4,0.2,1.6-0.4
	c0.1-0.5,0.3-0.9,0.3-1.4C1024.7,580.3,1025.5,570,1025.7,559.9z"/>
<path fill="#B2ACBF" d="M2021.1,1243.4c0.1,0,0.2,0,0.3,0c0-2.9-0.1-5.8,0-8.6c0.4-13.7,0.9-27.5,1.4-41.2
	c0.7-19.8,1.5-39.6,2.2-59.4c0.1-2-0.5-3.2-2.5-4.1c-4.5-2-8.9-4.4-13-7.2c-24.2-16.8-37.6-39.9-40.7-69.2c-0.2-1.9,0.6-4.2-0.9-5.5
	c-1.4-1.2-3.5-1.4-5.3-2c-1.1-0.4-2.2-0.6-3.2-0.9c-10.7-2.7-21.4-3.4-32.3-1.7c-17.9,2.7-32.6,11.6-45.7,23.6
	c-1.3,1.2-1.7,2.4-1.4,4.2c1.2,6.5,3.8,12.5,7.4,18.1c9.9,15.3,23.3,26.1,40.4,32.5c7.6,2.8,15.5,4.1,23.5,2.5
	c2.5-0.5,4.3,0.3,5.9,2.1c5.2,5.6,8.3,12.1,9.2,19.6c0.8,6,1.4,12.1,2.1,18.1c1.1,9.7,2.2,19.4,3.3,29.1c1.4,12.5,2.9,25.1,4.4,37.6
	c1.4,12.5,2.8,25.1,4.2,37.6c1.4,12.5,2.9,25.1,4.4,37.6c1.4,12.5,2.8,25.1,4.2,37.6c0.4,3.3,0.7,6.7,1.2,10
	c0.8,5.1,3.8,8.3,8.5,10.1c3.2,1.2,6.6,1.3,9.9,0.4c5.5-1.6,8.8-5.8,8.6-10.7c0-0.6,0.1-1.3,0.1-1.9c0.7-20.9,1.4-41.9,2.1-62.8
	C2020,1273.7,2020.5,1258.5,2021.1,1243.4z"/>
<path fill="#C1D8E5" d="M1076.8,1044.5c-10.7-0.1-19.8,2-27.8,4.5c-1.5,0.5-2.3,1.3-2.4,3.1c-0.2,3.2-0.4,6.4-0.9,9.5
	c-4.5,26.8-17.9,47.9-40.4,63.2c-4.9,3.3-4.6,1.9-2.9,7.9c21,73.9,42,147.9,63.1,221.8c0.4,1.5,0.8,3.1,1.4,4.6
	c1.7,4.2,4.8,6.8,9.2,7.5c1.7,0.3,3.5,0.3,5.3,0.2c8-0.6,13.3-7.2,12.1-15.2c-1.5-10.4-2.9-20.9-4.3-31.4
	c-1.4-9.8-2.7-19.6-4.1-29.5c-1.8-13.1-3.7-26.3-5.5-39.4c-1.8-12.7-3.6-25.3-5.3-38c-1.7-12.5-3.4-25-5.2-37.5
	c-1.8-12.7-3.6-25.3-5.3-38c-0.7-5.1-1.7-10.1-1.4-15.3c0.3-5.6,1.9-10.7,4.7-15.4c1.1-1.8,2.5-2.9,4.7-2.7c0.5,0,1,0,1.4,0
	c15.7-0.5,30.1-5.2,43.3-13.9c6.7-4.4,12.7-9.7,17.9-15.9c2.6-3.1,2.6-3.1-0.2-5.7c-6.4-5.9-13.2-11.1-20.9-15.2
	C1101.7,1047.6,1089.5,1044.3,1076.8,1044.5z"/>
<path fill="#FFFFFF" d="M1025.4,1367c12,0,24,0,36,0c4,0,4.1-0.1,2.2-3.4c-0.9-1.5-1.4-3.2-1.9-4.9c-4.9-17.1-9.7-34.1-14.6-51.2
	c-16.4-57.6-32.8-115.2-49.1-172.9c-0.3-1.1-0.6-2.2-1-3.2c-0.3-0.6-0.8-0.9-1.5-0.7c-0.4,0.2-0.9,0.3-1.3,0.5
	c-9.8,4.6-20.1,7.2-30.9,8.2c-4.5,0.4-4.6-0.4-4.4,5.2c0,0.5,0.1,1,0.2,1.4c0.9,6.3,1.9,12.6,2.8,19c3.4,22.4,6.8,44.9,10.2,67.3
	c3,20.4,6,40.8,9.1,61.2c2.9,19.6,5.8,39.2,8.8,58.8c0.3,1.8,0.1,3.5-0.2,5.2c-0.5,2.6-1.6,4.8-3,7c-1.2,1.9-0.9,2.4,1.4,2.5
	c1.1,0,2.2,0,3.4,0C1002.7,1367,1014,1367,1025.4,1367z"/>
<path fill="#C1D8E5" d="M1297.4,1364.4c5.3-0.5,9.6-2.4,12.2-7.3c0.8-1.6,1.1-3.3,1.4-5.1c2.1-13.3,4.1-26.5,6.2-39.8
	c2.7-17.4,5.5-34.7,8.2-52.1c2.7-17.4,5.4-34.7,8.1-52.1c2.7-17.4,5.5-34.7,8.2-52.1c3-19.4,6.1-38.8,9.1-58.3
	c0.2-1.2,1.1-2.9,0.2-3.6c-1.4-1-2.5,0.8-3.6,1.5c-12.7,8.3-26.5,14-41.5,16.8c-5,0.9-10.1,1.6-15.2,1.8c-3.1,0.1-3.3,0.4-3.6,3.2
	c-0.6,5.7-1.2,11.4-1.8,17.2c-1.9,18-3.8,35.9-5.6,53.9c-0.3,2.7-0.5,5.4-0.5,8.1c0.2,10.7,0.5,21.4,0.8,32.1
	c0.6,25.1,1.3,50.2,1.9,75.3c0.4,15.3,0.8,30.7,1.2,46c0.1,2.2,0.1,4.5,1.2,6.5C1287,1361.9,1291.7,1364,1297.4,1364.4z"/>
<path fill="#B2ACBF" d="M1736.8,1277.3c0.1,0,0.2,0,0.2,0c0-5.1,0-10.2,0-15.3c0.1-16.6,0.2-33.3,0.3-49.9c0-4.2,0.2-8.3-0.1-12.5
	c-0.6-7.2-1.4-14.3-2.2-21.5c-1.1-10.8-2.3-21.6-3.4-32.4c-1-10-2-20-3.1-30c-0.3-2.9-0.6-3.3-3.5-3.4c-5.1-0.2-10.2-0.8-15.2-1.7
	c-12.9-2.4-24.9-6.9-36.2-13.5c-0.8-0.5-1.7-1-2.6-1.3c-0.4-0.1-1,0.1-1,0.7c0,1.1,0,2.2,0.1,3.3c1.4,9.2,2.8,18.3,4.1,27.5
	c2.1,13.9,4.2,27.8,6.3,41.7c2.1,13.7,4.1,27.5,6.2,41.2c2.1,13.9,4.2,27.8,6.3,41.7c2.1,13.7,4.1,27.5,6.2,41.2
	c2.4,16.1,4.9,32.2,7.3,48.3c0.8,5.4,1.5,10.8,2.5,16.1c1,5.4,5.3,8.9,10.7,9.2c1.6,0.1,3.2,0,4.8,0c2.5-0.1,4.7-1,6.6-2.5
	c3.6-2.9,5.2-6.6,5.3-11.3C1736.5,1327.9,1736.7,1302.6,1736.8,1277.3z"/>
<path fill="#CCD6DA" d="M2466.8,1366.2c13.4,0,26.9,0,40.3,0c1.4,0,2.9-0.1,4.3-0.1c0.6,0,1-0.9,0.7-1.4c-0.2-0.4-0.5-0.8-0.8-1.2
	c-1.9-2.3-4.4-3.1-7.2-3c-1.5,0-2.9-0.3-3.5-1.9c-0.5-1.5,0.5-2.4,1.4-3.3c6.8-7,8.9-22.2,2.4-32.8c-2.8-4.6-6.4-8.4-11.3-10.7
	c-3-1.4-4.3-3.4-4.6-6.6c-0.4-3.6-1.3-7.2-2-10.8c-1.7-9.1-3.5-18.2-5.2-27.3c-0.3-1.4-0.4-2.8-0.4-4.3c0-1.1,1.2-2.1,2.3-1.9
	c1.3,0.2,2.5,0.6,3.7,0.8c9.2,1.9,18.5-3.7,20.7-12.8c2.5-10.1-3.1-18.3-11.2-21.2c-8.7-3.1-18.2,1-22,9.5c-2.1,4.6-2.1,9.3-0.2,14
	c0.5,1.2,1,2.4,1.3,3.6c0.3,1.1-0.7,2.4-1.8,2.4c-1.3,0-2.6-0.1-3.8-0.3c-15.5-3-31.1-6-46.6-8.9c-4.2-0.8-4.2-0.8-6,3
	c-0.5,1.1-2.1,1.9-1.5,3.3c0.5,1.2,1.9,1.6,2.9,2.4c0.8,0.6,1.6,1.1,2.4,1.6c9,6,18,12.1,27.1,18.1c2,1.3,2.8,2.9,2.3,5.2
	c-0.7,3.3-1.3,6.6-1.9,9.9c-1,5.2-2,10.3-2.9,15.5c-0.3,1.9-1.2,3.2-3,3.9c-0.4,0.2-0.9,0.4-1.3,0.6c-18.8,10.1-19.4,33.2-9,44.2
	c0.9,1,1.6,2.1,0.9,3.4c-0.6,1.4-1.9,1.5-3.3,1.6c-1.1,0.1-2.2,0-3.3,0.2c-2.5,0.4-4.4,1.8-5.6,4c-0.3,0.5,0.1,1.4,0.7,1.5
	c1.4,0.1,2.9,0.1,4.3,0.1C2439.7,1366.2,2453.3,1366.2,2466.8,1366.2z"/>
<path fill="#FFFFFF" d="M2022.6,1366.9C2022.6,1366.9,2022.6,1366.9,2022.6,1366.9c1.6-0.1,3.2,0,4.8-0.1c1,0,1.4-0.9,0.7-1.6
	c-4.6-5-5.7-10.7-4.5-17.4c2.3-13.1,4.4-26.2,6.5-39.3c2.7-16.9,5.4-33.8,8.1-50.7c2.7-16.9,5.5-33.8,8.2-50.6
	c3.1-19.4,6.3-38.8,9.4-58.2c0.5-3,0.8-6,1.1-9c0.1-1.5-0.5-2.1-1.9-2.2c-7.8-0.6-15.5-1.9-23.1-4.2c-1.2-0.4-1.8,0-1.9,1.3
	c-0.3,6.1-0.6,12.1-0.8,18.2c-0.5,13.7-0.9,27.5-1.4,41.2c-0.8,22.8-1.7,45.7-2.5,68.5c-0.5,13.3-0.9,26.5-1.3,39.8
	c-0.3,9.7-0.6,19.5-1.1,29.2c-0.3,6.7-0.8,13.4-0.4,20.1c0.1,0.9-0.1,1.9-0.2,2.9c-0.6,3.5-1.8,6.8-4.3,9.4c-0.5,0.5-1.4,1.1-0.9,2
	c0.5,0.7,1.4,0.6,2.2,0.6C2020.3,1367,2021.5,1366.9,2022.6,1366.9z"/>
<path fill="#FFFFFF" d="M487,1367c15.5,0,31,0,46.5,0c1.4,0,2.9,0.3,4.3-0.3c0.2-0.1,0.4-0.7,0.3-0.7c-0.8-0.5-1.6-1.1-2.4-1.5
	c-4.3-2.6-7.2-6.3-8.9-10.9c-1.1-3-1.9-6.1-2.1-9.3c-0.1-2.6-0.1-5.1-0.2-7.7c0-1.9-0.4-2.3-2.2-2.3c-4.2-0.1-8.3,0-12.5,0
	c-1.6,0-3.2,0-4.8,0.1c-0.9,0-1.4,0.7-1.5,1.5c-0.1,1.1-0.1,2.2-0.1,3.4c0,3.2,0,6.4,0,9.6c0,1,0,1.9-0.2,2.9
	c-0.2,1.1-1.3,1.9-2.4,2c-1.1,0-2.1-0.8-2.3-2c-0.2-1.3-0.2-2.5-0.2-3.8c0-3.8,0-7.7-0.1-11.5c0-1.5-0.5-2-2.1-2
	c-3.8-0.1-7.7-0.1-11.5,0c-2.4,0-2.8,0.4-2.8,2.8c-0.1,3.8,0,7.7,0,11.5c0,1.1,0,2.2-0.2,3.3c-0.2,1.1-1,1.6-2,1.8
	c-1.1,0.1-2.4-0.7-2.6-1.7c-0.2-1.1-0.2-2.2-0.2-3.3c0-4,0-8,0-12c0-1.9-0.4-2.3-2.3-2.3c-3.8-0.1-7.7-0.1-11.5,0
	c-2.1,0-2.5,0.4-2.6,2.5c-0.1,3.8,0,7.7,0,11.5c0,1.1,0,2.2-0.1,3.3c-0.1,1.1-1.3,2-2.3,2.1c-1,0-2.2-0.9-2.3-2
	c-0.1-1.1-0.1-2.2-0.1-3.4c0-3.8,0-7.7,0-11.5c0-2.1-0.4-2.6-2.5-2.6c-5.3-0.1-10.6,0-15.8,0c-0.3,0-0.6,0.1-0.9,0.1
	c-0.7,0.1-1.2,0.5-1.3,1.2c-0.1,1.1-0.2,2.2-0.2,3.3c0,7.7,0,15.4,0,23c0,5.2-0.3,5.2,5.3,5.2C455.7,1366.9,471.3,1367,487,1367z"/>
<path fill="#FFFFFF" d="M429.7,1331.6c0-8.9,0-17.9,0-26.8c0-1.3,0-2.6-0.1-3.8c0-0.7-0.5-1.2-1.2-1.3c-0.5-0.1-1-0.1-1.4-0.1
	c-7.8,0.6-15.5,1.7-23,4.4c-13,4.7-23.7,12.4-31.5,23.9c-1.8,2.6-2.1,4.8-0.1,7.3c1.3,1.6,2.3,3.4,3.6,5.1
	c5.9,7.4,13.3,12.8,21.9,16.6c9,4,18.6,5.8,28.3,6.5c0.3,0,0.6,0,1,0c1.9,0,2.3-0.4,2.4-2.1c0.1-1.1,0-2.2,0-3.4
	C429.7,1349.2,429.7,1340.4,429.7,1331.6z"/>
<path fill="#FFFFFF" d="M1271.6,1366.9C1271.6,1366.9,1271.6,1366.9,1271.6,1366.9c3.2,0.1,6.4,0.1,9.6,0c1.3,0,2.5-0.1,3.8-0.2
	c0.6-0.1,0.7-0.7,0.5-1c-0.5-0.6-1.1-1.1-1.7-1.7c-3.7-3.5-5.6-7.7-5.6-12.8c0-4-0.3-8-0.4-12c-0.7-26.4-1.4-52.8-2-79.1
	c-0.2-6.7-0.3-13.4-0.4-20.1c0-0.3-0.1-0.6-0.2-0.9c-0.2,0.2-0.5,0.5-0.5,0.7c-0.4,2-0.8,4.1-1,6.2c-0.8,7.6-1.5,15.3-2.3,22.9
	c-1.4,13.7-2.9,27.3-4.4,41c-1.4,13.8-2.9,27.7-4.2,41.5c-0.5,5-1.4,9.8-4.7,13.8c-0.8,0.9-0.3,1.7,1.1,1.7
	C1263.2,1366.9,1267.4,1366.9,1271.6,1366.9z"/>
<path fill="#FFFFFF" d="M1747.6,1366.8C1747.6,1366.9,1747.6,1366.9,1747.6,1366.8c3,0.1,6.1,0.1,9.1,0.1c0.6,0,1.4,0,1.5-0.8
	c0.1-0.4-0.2-0.9-0.5-1.2c-2.9-3.5-4.2-7.4-4.6-11.9c-0.5-6.1-1.2-12.1-1.9-18.1c-1.1-10.7-2.3-21.3-3.4-32
	c-1.4-13.7-2.8-27.4-4.2-41c-0.3-2.5-0.6-5.1-0.9-7.6c0-0.4-0.3-0.7-0.5-1.1c-0.1,0.3-0.3,0.6-0.3,0.9c-0.1,1.3-0.2,2.6-0.2,3.8
	c-0.3,30.2-0.5,60.4-0.7,90.7c0,6,0.1,11.9-3.9,16.9c-0.4,0.5,0.1,1.3,0.8,1.3C1741.3,1366.9,1744.5,1366.8,1747.6,1366.8z"/>
<path fill="#FFFFFF" d="M529.6,1322.8c0,1.4,0,2.9,0,4.3c0,1.1,0.8,1.7,1.9,1.8c5.7,0.4,11.2-0.1,16.5-2.4c3.7-1.6,6.5-4.1,8.2-7.8
	c2.5-5.3,3.2-11,2.7-16.8c-0.1-1.7-0.7-2.2-2.4-2.4c-5-0.4-9.9,0.2-14.6,1.9c-5.1,1.8-8.6,5.3-10.4,10.5
	C530.1,1315.5,529.5,1319.1,529.6,1322.8z"/>
<path fill="#FFFFFF" d="M529.5,1340.4c0,3,0.5,6.4,1.5,9.8c1.9,5.9,5.7,9.8,11.7,11.7c4.5,1.4,9.1,1.8,13.7,1.5
	c1.7-0.1,2.2-0.5,2.4-2.4c0.5-5.3-0.2-10.5-2.1-15.5c-1.9-4.8-5.3-7.9-10.1-9.6c-3.6-1.3-7.4-1.9-11.3-1.9
	C529.5,1333.9,529.4,1334,529.5,1340.4z"/>
<path fill="#53456A" d="M978.8,227c1.5,4.3,0.9,5.3-3.3,5.4c-7.7,0.1-15.4,0-23,0c-0.2,0-0.3,0-0.5,0c-3.7-0.2-4.2-1.1-3-4.9
	c0-0.1,0-0.3,0.1-0.5C959,227,968.9,227,978.8,227z"/>
<path fill="#53456A" d="M234.8,347.9c2.2,0.1,4.1-1.3,6.5-0.9c2.2,0.3,4.4,0.1,6.7,0.1c4.9,0,9.9,0,14.8,0c1.1,0,2.2,0,3.3,0.3
	c1,0.2,1.5,1.1,1.6,2.1c0,1-0.5,1.9-1.5,2.1c-0.9,0.2-1.9,0.3-2.8,0.3c-7.6,0-15.3-0.1-22.9,0.1c-2,0-3.6-1.2-5.5-1.1
	C234.8,349.8,234.8,348.9,234.8,347.9z"/>
<path fill="#53456A" d="M1940.9,344.7c-44,0-88,0-132,0c-1.4,0-2.9,0.1-4.3,0c-2.7-0.2-3.4-0.9-3.6-3.5c-0.1-0.8,0-1.6,0-2.4
	c0-15.8,0-31.7,0-47.5c0-5.8,0.1-5.9,5.9-5.9c19,0,38.1,0,57.1,0c6.4,0,5.9,0.5,5.9-6c0-13.1,0-26.2,0-39.4c0-4.3-0.1-4.3-4.2-4.3
	c-6.7,0-13.4,0-20.2,0c-1.3,0-2.6,0-3.8-0.3c-1-0.2-1.6-1.1-1.5-2.2c0.1-1,0.7-1.9,1.7-2c1.3-0.2,2.5-0.2,3.8-0.2
	c10.1,0,20.2,0,30.2,0c43.2,0,86.4,0,129.6,0c1.6,0,3.2,0,4.8,0.1c1.1,0.1,1.8,0.9,1.9,1.8c0.2,1.4,0.2,2.9,0.2,4.3
	c0,14.1,0,28.2,0,42.2c0,6.4-0.6,6,5.9,6c18.4,0,36.8,0,55.2,0c1.1,0,2.2,0,3.4,0c3.8,0.1,4.3,0.6,4.4,4.5c0.1,2.1,0,4.2,0,6.2
	c0,13.9,0,27.8,0,41.8c0,6.7-0.1,6.8-6.6,6.8C2030.2,344.7,1985.6,344.7,1940.9,344.7z"/>
<path fill="#D6E9F6" d="M1941.7,235.6c-20.9,0-41.9,0-62.8,0c-4.2,0-4.2,0.1-4.2,4.3c0,13.6,0,27.2,0,40.8c0,4.6,0,4.7,4.9,4.7
	c41.1,0,82.1,0,123.2,0c1.1,0,2.2,0,3.3-0.1c0.9-0.1,1.4-0.7,1.5-1.6c0.1-1.1,0.1-2.2,0.1-3.4c0-13.3,0-26.5,0-39.8
	c0-0.6,0-1.3,0-1.9c-0.1-2.5-0.4-2.8-2.7-2.9c-1.3-0.1-2.6,0-3.8,0C1981.4,235.6,1961.6,235.6,1941.7,235.6z"/>
<path fill="#D6E9F6" d="M2010.4,339.7c20.6,0,41.3,0,61.9,0c4.2,0,4.2-0.1,4.2-4.3c0-13.4,0-26.9,0-40.3c0-5.2,0.1-4.9-5.1-4.9
	c-40.9,0-81.9,0-122.8,0c-1.1,0-2.2,0-3.4,0.1c-0.9,0.1-1.5,0.6-1.5,1.5c-0.1,1.3-0.1,2.6-0.1,3.8c0,12.8,0,25.6,0,38.4
	c0,5.9-0.5,5.6,5.8,5.6C1969.7,339.7,1990,339.7,2010.4,339.7z"/>
<path fill="#B2ACBF" d="M1872.6,290.2c-20.8,0-41.6,0-62.4,0c-4.2,0-4.2,0.1-4.2,4.3c0,13.4,0,26.9,0,40.3c0,5.1-0.1,4.9,5,4.9
	c40.9,0,81.9,0,122.8,0c1.1,0,2.2,0,3.4-0.1c0.9-0.1,1.5-0.6,1.5-1.5c0.1-1.1,0.1-2.2,0.1-3.4c0-13.1,0-26.2,0-39.3
	c0-5.4,0.3-5.2-5.3-5.2C1913.2,290.2,1892.9,290.2,1872.6,290.2z"/>
<path fill="#53456A" d="M1494,471.8c26.1,0,52.2,0,78.2,0c6.6,0,6.6,0,6.6,6.6c0,15.7,0,31.4,0,47c0,5.5-0.1,5.7-5.6,5.7
	c-18.6,0-37.1,0-55.7,0c-0.8,0-1.6,0-2.4,0c-5.4,0-5.2-0.2-5.2,5.2c0,13.1,0,26.2,0,39.4c0,1,0,1.9,0,2.9c0.1,1.5,0.6,2.1,2,2.2
	c1.8,0.1,3.5,0.1,5.3,0.1c4.8,0,9.6,0,14.4,0c1.1,0,2.2,0,3.3,0.2c1,0.2,1.7,0.8,1.8,1.9c0,1.1-0.4,1.9-1.4,2.3
	c-0.6,0.2-1.2,0.4-1.9,0.4c-1.3,0.1-2.6,0-3.8,0c-51.7,0-103.3,0-155,0c-7.7,0-7.2-0.4-7.2-7.1c0-15,0-30.1,0-45.1
	c0-0.8,0-1.6,0-2.4c0.1-4.4,0.4-4.8,5.1-4.8c15.7,0,31.4,0,47,0c4.6,0,9.3,0,13.9,0c2.1,0,2.6-0.5,2.7-2.5c0-0.5,0-1,0-1.4
	c0-13.9,0-27.8,0-41.8c0-0.8,0-1.6-0.1-2.4c-0.1-0.9-0.6-1.5-1.6-1.5c-1.1-0.1-2.2-0.1-3.4-0.1c-5.6,0-11.2,0-16.8,0
	c-1.1,0-2.2,0-3.3-0.2c-1.1-0.2-1.6-1.2-1.6-2.1c0-1,0.5-2,1.6-2.2c1.4-0.2,2.9-0.3,4.3-0.3c16.8,0,33.6,0,50.4,0
	C1475.1,471.8,1484.6,471.8,1494,471.8z"/>
<path fill="#B2ACBF" d="M1438.6,580.8c20.1,0,40.3,0,60.4,0c1.4,0,2.9,0,4.3-0.1c1.1-0.1,1.7-0.8,1.7-1.9c0-0.8,0-1.6,0-2.4
	c0-13.6,0-27.2,0-40.8c0-4.5,0-4.5-4.4-4.5c-16.6,0-33.3,0-49.9,0c-24.3,0-48.6,0-72.9,0c-6.1,0-5.6-0.5-5.6,5.8
	c0,12.6,0,25.3,0,37.9c0,6.4-0.7,6,5.9,6C1398.3,580.8,1418.4,580.8,1438.6,580.8z"/>
<path fill="#D6E9F6" d="M1507.6,476.6c-20.1,0-40.3,0-60.4,0c-1.4,0-2.9,0-4.3,0.1c-0.9,0-1.5,0.6-1.6,1.5c-0.1,1.1-0.1,2.2-0.1,3.3
	c0,13.3,0,26.5,0,39.8c0,0.8,0,1.6,0,2.4c0.1,2,0.6,2.5,2.6,2.6c0.6,0,1.3,0,1.9,0c41.2,0,82.5,0,123.7,0c4.5,0,4.6,0,4.6-4.5
	c0-13.3,0-26.5,0-39.8c0-5.8,0.3-5.4-5.5-5.4C1548.3,476.6,1527.9,476.6,1507.6,476.6z"/>
<path fill="#53456A" d="M397.1,342.4c25.9,0,51.8,0,77.8,0c1.4,0,2.9,0,4.3,0.1c1.5,0.2,2.2,1,2.4,2.6c0.1,1.1,0.1,2.2,0.1,3.4
	c0,15.8,0,31.7,0,47.5c0,1.1,0,2.2-0.1,3.4c-0.2,1.6-0.8,2.2-2.5,2.3c-1.4,0.1-2.9,0.1-4.3,0.1c-18.9,0-37.8,0-56.6,0
	c-5.2,0-5.3-0.4-5.3,5.2c0,14.4,0,28.8,0,43.2c0,6.1,0,6.2-6.1,6.2c-43.5,0-87,0-130.5,0c-1.1,0-2.2,0-3.4-0.1
	c-1.5-0.2-2.3-0.9-2.4-2.5c-0.1-1.1-0.1-2.2-0.1-3.4c0-15.8,0-31.7,0-47.5c0-5.8,0.1-5.9,5.9-5.9c19.2,0,38.4,0,57.6,0
	c5.3,0,5.4,0.5,5.4-5.1c0-13.1,0-26.2,0-39.4c0-0.8,0-1.6,0-2.4c-0.1-2.3-0.5-2.7-2.9-2.7c-6.1-0.1-12.2,0-18.2,0
	c-1.3,0-2.6,0-3.8-0.2c-1.1-0.1-1.6-0.9-1.8-2c-0.1-1.1,0.7-2.3,1.8-2.5c1.4-0.2,2.9-0.2,4.3-0.2c23.5,0,47,0,70.6,0
	C391.7,342.4,394.4,342.4,397.1,342.4z"/>
<path fill="#53456A" d="M341.8,451.5c20.5,0,40.9,0,61.4,0c4.7,0,4.7,0,4.7-4.8c0-13.1,0-26.2,0-39.3c0-6.1,0.3-5.6-5.8-5.6
	c-21.9,0-43.8,0-65.7,0c-18.9,0-37.7,0-56.6,0c-4.6,0-4.7,0-4.7,4.8c0,13.1,0,26.2,0,39.3c0,6-0.4,5.6,5.8,5.6
	C301.2,451.5,321.5,451.5,341.8,451.5z"/>
<path fill="#B2ACBF" d="M410,397c20.1,0,40.3,0,60.4,0c1.3,0,2.6,0,3.8,0c2.1-0.1,2.5-0.4,2.5-2.6c0.1-4,0-8,0-12
	c0-10.7,0-21.4,0-32.1c0-2.5-0.3-2.8-2.7-2.9c-0.8,0-1.6,0-2.4,0c-40.9,0-81.8,0-122.7,0c-1.1,0-2.2,0-3.3,0.1
	c-0.9,0.1-1.4,0.7-1.5,1.5c-0.1,0.8-0.1,1.6-0.1,2.4c0,13.9,0,27.8,0,41.7c0,0.5,0,1,0,1.4c0.1,1.9,0.5,2.3,2.2,2.4
	c1.4,0.1,2.9,0,4.3,0C370.4,397,390.2,397,410,397z"/>
<path fill="#53456A" d="M2377.9,815.4c-21.1,0-42.2,0-63.3,0c-1.3,0-2.6,0-3.8,0c-3.3-0.1-4-0.8-4.1-3.9c0-0.6,0-1.3,0-1.9
	c0-16,0-32,0-47.9c0-5.4,0.2-5.6,5.7-5.6c43.8,0,87.6,0,131.4,0c5.4,0,5.5,0.2,5.6,5.8c0,16,0,32,0,47.9c0,5.4-0.3,5.6-5.7,5.6
	C2421.6,815.4,2399.8,815.4,2377.9,815.4z"/>
<path fill="#D6E9F6" d="M2377.5,810.5c20,0,40,0,60,0c1.3,0,2.6,0,3.8,0c2.6-0.1,2.9-0.4,3-3.1c0-0.6,0-1.3,0-1.9
	c0-13.3,0-26.6,0-39.8c0-0.8,0-1.6,0-2.4c-0.1-1.9-0.5-2.3-2.3-2.4c-1.1-0.1-2.2,0-3.4,0c-40.5,0-80.9,0-121.4,0
	c-1.3,0-2.6,0-3.8,0.1c-1.4,0.1-1.9,0.6-2,2.1c-0.1,0.8-0.1,1.6-0.1,2.4c0,13.4,0,26.9,0,40.3c0,1,0,1.9,0.1,2.9
	c0.1,1.1,0.6,1.8,1.8,1.9c1.4,0.1,2.9,0.1,4.3,0.1C2337.5,810.5,2357.5,810.5,2377.5,810.5z"/>
<path fill="#53456A" d="M602.1,632.1c21.4,0,42.8,0,64.3,0c1.4,0,2.9,0,4.3,0.1c1.4,0.1,2.3,1,2.5,2.4c0.1,0.9,0.1,1.9,0.1,2.9
	c0,16.1,0,32.3,0,48.4c0,5.2-0.4,5.5-5.4,5.5c-44,0-87.9,0-131.9,0c-5.2,0-5.4-0.3-5.4-5.4c0-16.1,0-32.3,0-48.4
	c0-5.3,0.2-5.5,5.8-5.5C558.3,632.1,580.2,632.1,602.1,632.1z"/>
<path fill="#D6E9F6" d="M601.5,686.6c20,0,40,0,60,0c1.3,0,2.6,0,3.8,0c2.6-0.1,2.9-0.4,3-3.2c0.1-3.4,0-6.7,0-10.1
	c0-11,0-22.1,0-33.1c0-3.1-0.3-3.3-3.3-3.3c-0.5,0-1,0-1.4,0c-41.1,0-82.2,0-123.3,0c-1.1,0-2.2,0-3.4,0.1c-0.9,0.1-1.4,0.7-1.5,1.6
	c-0.1,0.5-0.1,1-0.1,1.4c0,14.4,0,28.8,0,43.2c0,3.1,0.3,3.3,3.3,3.4c1.3,0,2.6,0,3.8,0C562.2,686.6,581.9,686.6,601.5,686.6z"/>
<path fill="#53456A" d="M1360.9,406.4c-21.6,0-43.2,0-64.8,0c-1.4,0-2.9,0-4.3-0.1c-1-0.1-1.8-0.8-1.9-1.9c-0.1-1.1-0.2-2.2-0.2-3.3
	c0-16.2,0-32.3,0-48.5c0-5.4,0.2-5.5,5.8-5.5c40,0,80,0,120,0c3.7,0,7.4,0,11,0c1,0,1.9,0,2.9,0.1c1.8,0.2,2.5,0.9,2.7,2.7
	c0.1,1.1,0.1,2.2,0.1,3.4c0,15.7,0,31.3,0,47c0,6.1,0,6.2-6.1,6.2C1404.4,406.4,1382.7,406.4,1360.9,406.4z"/>
<path fill="#D6E9F6" d="M1360.9,351.8c-20,0-40,0-60,0c-1.4,0-2.9,0-4.3,0.1c-1.4,0.1-1.9,0.6-2,2.1c0,0.6,0,1.3,0,1.9
	c0,13.7,0,27.5,0,41.2c0,0.6,0,1.3,0,1.9c0.1,1.9,0.5,2.3,2.2,2.4c1.3,0.1,2.6,0,3.8,0c40.1,0,80.3,0,120.4,0c1.3,0,2.6,0,3.8,0
	c2-0.1,2.4-0.5,2.5-2.7c0-1,0-1.9,0-2.9c0-13,0-25.9,0-38.9c0-1,0-1.9,0-2.9c-0.1-1.8-0.5-2.3-2.2-2.4c-1.4-0.1-2.9,0-4.3,0
	C1400.9,351.8,1380.9,351.8,1360.9,351.8z"/>
<path fill="#53456A" d="M1655.5,536.5c3.7,0,7.3,0,11,0c0.9,0,1.9,0.1,2.8,0.4c0.9,0.3,1.5,1.1,1.4,2.2c-0.1,0.9-0.6,1.6-1.3,1.8
	c-0.9,0.3-1.8,0.5-2.8,0.5c-7.8,0-15.6,0-23.4,0c-0.8,0-1.6-0.1-2.3-0.3c-1-0.3-1.6-1-1.6-2.1c0-1.2,0.7-2.2,1.9-2.3
	c1.1-0.2,2.2-0.2,3.3-0.2C1648.1,536.4,1651.8,536.5,1655.5,536.5C1655.5,536.5,1655.5,536.5,1655.5,536.5z"/>
<path fill="#53456A" d="M727.5,760.1c-3.5,0-7,0-10.5,0c-1.1,0-2.2-0.1-3.3-0.3c-1-0.2-1.6-1.1-1.6-2.1c0-1.1,0.6-1.8,1.6-2.1
	c0.6-0.2,1.2-0.3,1.9-0.3c8.1,0,16.2,0,24.3,0c0.6,0,1.3,0.1,1.9,0.2c1.1,0.3,1.8,1.3,1.8,2.5c-0.1,1.1-0.8,1.7-1.8,1.9
	c-1.1,0.2-2.2,0.2-3.3,0.2C734.8,760.1,731.1,760.1,727.5,760.1z"/>
<path fill="#53456A" d="M1618.5,577.4c-3.7,0-7.3,0-11,0c-0.9,0-1.9,0-2.8-0.3c-1-0.3-1.6-1.2-1.5-2.2c0-1,0.6-1.8,1.6-2.1
	c0.8-0.2,1.6-0.2,2.4-0.2c7.8,0,15.6,0,23.4,0c0.8,0,1.6,0,2.4,0.2c1.1,0.2,1.6,1,1.7,2c0.1,1.2-0.7,2.3-1.8,2.4
	c-1.1,0.2-2.2,0.2-3.3,0.2C1625.9,577.4,1622.2,577.4,1618.5,577.4z"/>
<path fill="#53456A" d="M1245.7,348.3c-3.7,0-7.3,0-11,0c-1.1,0-2.2-0.1-3.3-0.4c-0.8-0.2-1.3-0.9-1.4-1.7c-0.2-1.1,0.3-1.9,1.2-2.3
	c0.7-0.3,1.5-0.4,2.3-0.4c8.1,0,16.2,0,24.3,0c0.8,0,1.6,0.1,2.3,0.4c0.9,0.4,1.4,1.3,1.2,2.4c-0.1,0.8-0.6,1.6-1.4,1.7
	c-1.1,0.2-2.2,0.3-3.3,0.3C1253,348.3,1249.4,348.3,1245.7,348.3z"/>
<path fill="#53456A" d="M928,268.2c-4.1,0-8.3,0-12.4,0c-2.1,0-3-0.7-3.1-2.2c-0.1-1.6,0.9-2.5,3.2-2.6c8.3,0,16.6,0,24.8,0
	c0.6,0,1.3,0,1.9,0.2c1,0.3,1.6,1.2,1.5,2.2c0,1-0.6,1.9-1.6,2.1c-0.9,0.2-1.9,0.2-2.8,0.2C935.6,268.2,931.8,268.2,928,268.2
	C928,268.2,928,268.2,928,268.2z"/>
<path fill="#53456A" d="M412,954.6c-3.7,0-7.3,0-11,0c-1,0-1.9,0-2.9-0.1c-1.2-0.1-2-1-2.1-2.2c-0.1-1.2,0.7-2.2,1.9-2.3
	c0.9-0.1,1.9-0.2,2.9-0.2c7.3,0,14.6,0,22,0c1,0,1.9,0,2.9,0.2c1.1,0.2,2,1.4,1.9,2.4c-0.1,1.1-1,2-2.2,2.2
	c-0.9,0.1-1.9,0.1-2.9,0.1C419,954.6,415.5,954.6,412,954.6z"/>
<path fill="#53456A" d="M450.3,636.9c-3.5,0-7,0-10.5,0c-1,0-1.9,0-2.9-0.1c-1.1-0.1-2.1-1.2-2.1-2.2c0-1,0.9-2.2,2-2.3
	c0.5-0.1,1-0.1,1.4-0.1c8.3,0,16.6,0,24.8,0c0.5,0,1,0.1,1.4,0.2c1.1,0.2,1.9,1.3,1.8,2.4c-0.1,1-0.6,1.8-1.7,2
	c-0.9,0.2-1.9,0.2-2.8,0.2C457.9,636.9,454.1,636.9,450.3,636.9z"/>
<path fill="#53456A" d="M2503.3,810.6c3.7,0,7.3,0,11,0c0.9,0,1.9,0.1,2.8,0.3c0.8,0.2,1.3,0.8,1.4,1.7c0.2,1.1-0.3,1.9-1.2,2.4
	c-0.7,0.3-1.5,0.4-2.3,0.4c-8.1,0-16.2,0-24.4,0c-0.6,0-1.3-0.1-1.9-0.2c-1.1-0.3-1.8-1.4-1.7-2.5c0.1-1.1,0.8-1.7,1.8-1.9
	c0.9-0.2,1.9-0.1,2.9-0.1C2495.7,810.5,2499.5,810.5,2503.3,810.6z"/>
<path fill="#53456A" d="M1582.1,269.5c-3.8,0-7.6,0-11.4,0c-0.8,0-1.6,0-2.4-0.1c-1.3-0.2-2-1.1-2-2.3c0.1-1.2,0.8-2.1,2-2.3
	c0.6-0.1,1.3-0.2,1.9-0.2c7.8,0,15.6,0,23.4,0c0.6,0,1.3,0,1.9,0.1c1.4,0.3,2.4,1.4,2.2,2.6c-0.1,1-1,1.9-2.3,2
	c-1.1,0.1-2.2,0.1-3.3,0.1C1588.8,269.6,1585.4,269.5,1582.1,269.5C1582.1,269.5,1582.1,269.5,1582.1,269.5z"/>
<path fill="#53456A" d="M1666.2,908.1c-0.3-16.4,11.7-31.3,28.8-34.2c1.3-0.2,2.5-0.5,3.8-0.5c0.8,0,1.6,0.1,2.3,0.4
	c0.9,0.4,1.5,1.2,1.3,2.3c-0.1,0.9-0.6,1.6-1.4,1.8c-1.4,0.4-2.8,0.6-4.2,0.8c-6.5,0.9-12.2,3.7-16.9,8.3
	c-16.2,15.9-9.2,43.2,12.6,49.5c2.9,0.8,5.9,1.1,9,1.2c2.3,0.1,3.3,1,3.1,2.7c-0.1,1.4-1.1,2.1-3.2,2.1c-15.9,0.2-30-10.2-34.1-25.6
	C1666.5,913.9,1666.1,910.9,1666.2,908.1z"/>
<path fill="#53456A" d="M1799.2,879.1c-0.4,5.8-2.9,10.2-8.1,12.7c-5.2,2.5-10.2,1.8-14.9-1.7c-0.8-0.6-1.4-1.3-2-2
	c-0.8-1.1-0.7-2.5,0.3-3.5c0.5-0.6,1.2-1.1,1.8-1.6c4.8-3.9,9.6-7.9,14.5-11.8c0.6-0.5,1.2-1,1.9-1.4c1.2-0.8,2.5-0.6,3.4,0.6
	C1798.3,872.8,1799,875.9,1799.2,879.1z"/>
<path fill="#53456A" d="M1635.3,878.4c-0.1-3.9,1.3-7.2,4.1-9.9c1.3-1.2,2.4-1.2,3.8,0c0.7,0.6,1.4,1.3,2,2
	c3.9,4.2,7.9,8.4,11.8,12.5c0.8,0.8,1.5,1.6,2.2,2.5c0.7,0.9,0.6,2.3-0.2,3.1c-0.9,0.9-1.9,1.7-3,2.3
	C1645.6,896,1634.9,888.5,1635.3,878.4z"/>
<path fill="#53456A" d="M1720.5,888.4c3.5,0,7,0,10.6,0c2.1,0,3.9,1.1,3,4.1c-1,3.2-3.4,5.4-5.9,7.3c-0.5,0.4-1.1,0.8-1.7,0.9
	c-3.9,0.6-4,3.3-3.9,6.4c0.1,2.4,0,4.8,0,7.2c0,1-0.2,1.9-0.9,2.7c-1,1.1-3.1,0.8-3.6-0.6c-0.3-0.9-0.4-1.9-0.4-2.8
	c-0.1-2.7-0.1-5.4,0-8.2c0.1-2-0.4-3.2-2.6-3.9c-3-0.9-5.1-3.2-7.2-5.4c-0.6-0.7-1.1-1.6-1.4-2.5c-1.1-2.8-0.1-4.2,2.9-4.4
	c3.7-0.2,7.3-0.4,11-0.6C1720.5,888.6,1720.5,888.5,1720.5,888.4z"/>
<path fill="#53456A" d="M1349.3,908c0,19-15.5,34.5-34.5,34.5c-0.6,0-1.3,0-1.9-0.1c-1.3-0.2-2.1-1-2.2-2.1
	c-0.1-1.3,0.8-2.3,2.3-2.5c1.1-0.1,2.2-0.1,3.3-0.2c6.3-0.4,11.9-2.4,16.7-6.4c9.8-8.1,13.5-18.6,10.2-30.9
	c-3.2-12.1-11.7-19.1-23.9-21.5c-1.6-0.3-3.2-0.4-4.7-0.8c-1-0.2-1.6-0.9-1.7-2c-0.1-1.2,0.7-2.2,1.9-2.4c0.6-0.1,1.3-0.1,1.9-0.1
	C1336.7,875.2,1349.3,890.8,1349.3,908z"/>
<path fill="#53456A" d="M1230.4,893.4c-5.8-0.2-10.1-2.8-12.5-8.1c-2.3-5-1.8-9.9,1.4-14.5c1.6-2.2,3.2-2.4,5.2-0.6
	c5.3,4.8,10.5,9.8,15.7,14.7c1.9,1.8,1.8,3.1-0.2,4.8C1237.3,892.3,1234.1,893.4,1230.4,893.4z"/>
<path fill="#53456A" d="M1380.2,880c-0.2,4.5-2.8,8.8-8.1,11.2c-5,2.3-10,1.9-14.5-1.4c-2.2-1.6-2.4-3.1-0.6-5.2
	c4.9-5.3,9.8-10.5,14.7-15.7c1.8-1.9,3.1-1.7,4.9,0.2C1378.9,871.5,1380.2,875,1380.2,880z"/>
<path fill="#53456A" d="M1295.1,888.7c3.8,0.2,7.7,0.3,11.5,0.6c2.2,0.2,3,1.5,2.5,3.7c-0.3,1.4-1.1,2.7-2.1,3.7c-2,2-4.1,4.2-6.9,5
	c-2,0.5-2.4,1.8-2.3,3.6c0.1,2.7,0,5.4,0,8.2c0,1-0.1,1.9-0.3,2.8c-0.2,0.8-0.9,1.3-1.7,1.4c-1.1,0.2-1.9-0.3-2.4-1.2
	c-0.3-0.7-0.4-1.5-0.4-2.3c0-3-0.1-6.1,0-9.1c0-1.8-0.4-3-2.4-3.5c-3-0.9-5.2-3-7.2-5.3c-1.2-1.3-2-2.9-2.1-4.7
	c-0.1-1.7,0.7-2.8,2.4-2.9c1.6-0.1,3.2,0,4.8,0c2.2,0,4.5,0,6.7,0C1295.1,888.6,1295.1,888.6,1295.1,888.7z"/>
<path fill="#53456A" d="M2499.6,1244.4c-0.1,5.2-4.1,8.9-9.3,8.8c-4.8-0.1-8.7-4.2-8.8-9c0-4.9,4.2-9.1,9.2-9.1
	C2495.8,1235.2,2499.7,1239.3,2499.6,1244.4z"/>
<path fill="#53456A" d="M2461,1266.4c0-3.3,2.6-5.6,5.8-5.5c3,0.1,5.4,2.5,5.5,5.5c0.1,3.1-2.6,5.8-5.7,5.8
	C2463.4,1272.2,2461,1269.7,2461,1266.4z"/>
<path fill="#53456A" d="M414.8,1330.3c0.1,5.9-4.5,10.7-10.4,10.9c-5.9,0.2-11.1-4.8-11-10.8c0-5.8,4.9-10.6,10.7-10.7
	C409.9,1319.7,414.7,1324.4,414.8,1330.3z"/>
</svg>
